<?xml version="1.0" encoding="UTF-8"?>
<svg xmlns="http://www.w3.org/2000/svg" xmlns:xlink="http://www.w3.org/1999/xlink" width="868pt" height="255.46pt" viewBox="0 0 868 255.46" version="1.1">
<defs>
<clipPath id="clip1">
  <path d="M 11 164 L 195 164 L 195 255.460938 L 11 255.460938 Z M 11 164 "/>
</clipPath>
</defs>
<g id="surface1">
<path style=" stroke:none;fill-rule:nonzero;fill:rgb(1.960754%,64.646912%,94.139099%);fill-opacity:1;" d="M 70.6875 152.339844 C 64.613281 152.339844 59.191406 148.058594 57.960938 141.878906 C 54.304688 123.429688 57.859375 104.558594 67.980469 88.746094 C 72.328125 81.949219 77.769531 75.953125 84.15625 70.921875 C 91.644531 65.023438 100.0625 60.71875 109.164063 58.136719 C 126.191406 53.308594 144.367188 54.871094 160.332031 62.554688 C 166.796875 65.65625 169.519531 73.417969 166.410156 79.882813 C 163.296875 86.347656 155.539063 89.066406 149.078125 85.960938 C 138.828125 81.03125 127.171875 80.027344 116.253906 83.125 C 110.433594 84.777344 105.039063 87.535156 100.230469 91.324219 C 96.128906 94.554688 92.636719 98.398438 89.855469 102.746094 C 83.464844 112.734375 81.125 125.15625 83.441406 136.824219 C 84.835938 143.859375 80.265625 150.695313 73.226563 152.089844 C 72.375 152.261719 71.523438 152.339844 70.6875 152.339844 "/>
<path style=" stroke:none;fill-rule:nonzero;fill:rgb(1.960754%,64.646912%,94.139099%);fill-opacity:1;" d="M 129.015625 200.117188 C 126.5 200.117188 123.980469 199.984375 121.453125 199.722656 C 114.527344 199 107.761719 197.296875 101.347656 194.652344 C 94.714844 191.921875 91.554688 184.335938 94.285156 177.699219 C 97.011719 171.066406 104.601563 167.902344 111.234375 170.636719 C 115.351563 172.332031 119.691406 173.425781 124.140625 173.890625 C 129.972656 174.492188 135.78125 174.007813 141.398438 172.445313 C 147.308594 170.804688 152.773438 168.019531 157.644531 164.183594 C 162.566406 160.304688 166.578125 155.585938 169.566406 150.15625 C 172.273438 145.234375 174.054688 139.910156 174.855469 134.320313 C 175.527344 129.585938 175.472656 124.804688 174.695313 120.105469 C 173.519531 113.027344 178.300781 106.339844 185.378906 105.167969 C 192.449219 103.988281 199.140625 108.773438 200.3125 115.847656 C 201.535156 123.171875 201.617188 130.621094 200.5625 137.988281 C 199.320313 146.695313 196.546875 155.003906 192.324219 162.679688 C 187.644531 171.175781 181.386719 178.542969 173.71875 184.585938 C 166.132813 190.5625 157.601563 194.898438 148.359375 197.46875 C 142.03125 199.230469 135.550781 200.117188 129.015625 200.117188 "/>
<g clip-path="url(#clip1)" clip-rule="nonzero">
<path style=" stroke:none;fill-rule:nonzero;fill:rgb(1.960754%,64.646912%,94.139099%);fill-opacity:1;" d="M 127.421875 255.460938 C 79.277344 255.460938 34.429688 228.238281 12.75 183.492188 C 9.625 177.035156 12.324219 169.269531 18.777344 166.140625 C 25.234375 163.019531 33 165.710938 36.128906 172.167969 C 56.585938 214.398438 102.96875 237.027344 148.9375 227.203125 C 158.34375 225.191406 167.371094 221.886719 175.761719 217.398438 C 182.078125 214.003906 189.953125 216.386719 193.339844 222.710938 C 196.726563 229.035156 194.347656 236.902344 188.023438 240.292969 C 177.484375 245.9375 166.160156 250.078125 154.367188 252.601563 C 145.359375 254.527344 136.328125 255.460938 127.421875 255.460938 "/>
</g>
<path style=" stroke:none;fill-rule:nonzero;fill:rgb(1.960754%,64.646912%,94.139099%);fill-opacity:1;" d="M 222.824219 204.753906 C 220.328125 204.753906 217.8125 204.035156 215.585938 202.542969 C 209.636719 198.539063 208.058594 190.46875 212.0625 184.515625 C 227.613281 161.402344 232.96875 133.679688 227.140625 106.445313 C 221.332031 79.277344 205.160156 56.199219 181.597656 41.464844 C 175.515625 37.660156 173.671875 29.648438 177.472656 23.566406 C 181.277344 17.484375 189.285156 15.632813 195.367188 19.441406 C 224.945313 37.9375 245.25 66.910156 252.542969 101.015625 C 259.851563 135.203125 253.128906 170.003906 233.613281 199.015625 C 231.105469 202.738281 227.003906 204.753906 222.824219 204.753906 "/>
<path style=" stroke:none;fill-rule:nonzero;fill:rgb(1.960754%,64.646912%,94.139099%);fill-opacity:1;" d="M 12.992188 136.792969 C 12.847656 136.792969 12.703125 136.792969 12.550781 136.785156 C 5.382813 136.546875 -0.234375 130.539063 0.0078125 123.371094 C 1.964844 64.695313 43.476563 15.132813 100.957031 2.839844 C 112.714844 0.328125 124.703125 -0.523438 136.601563 0.300781 C 143.757813 0.800781 149.15625 7.003906 148.65625 14.160156 C 148.15625 21.3125 142 26.671875 134.800781 26.210938 C 125.332031 25.546875 115.769531 26.234375 106.390625 28.238281 C 60.597656 38.03125 27.527344 77.511719 25.964844 124.238281 C 25.730469 131.257813 19.964844 136.792969 12.992188 136.792969 "/>
<path style=" stroke:none;fill-rule:nonzero;fill:rgb(10.205078%,14.892578%,17.259216%);fill-opacity:1;" d="M 501.925781 155.121094 C 498.09375 160.796875 492.265625 163.632813 484.445313 163.632813 C 480.304688 163.632813 476.738281 162.753906 473.753906 160.984375 C 470.761719 159.222656 468.347656 156.730469 466.507813 153.511719 C 464.664063 150.292969 463.28125 146.535156 462.363281 142.238281 C 461.441406 137.949219 460.984375 133.265625 460.984375 128.207031 C 460.984375 115.636719 463.050781 106.585938 467.191406 101.066406 C 471.332031 95.546875 477.085938 92.785156 484.445313 92.785156 C 492.875 92.785156 498.855469 96.042969 502.386719 102.558594 C 505.914063 109.082031 507.679688 117.625 507.679688 128.207031 C 507.679688 140.480469 505.757813 149.453125 501.925781 155.121094 M 535.164063 103.367188 C 532.941406 95.855469 529.605469 89.449219 525.160156 84.160156 C 520.710938 78.867188 515.113281 74.765625 508.371094 71.851563 C 501.617188 68.941406 493.644531 67.480469 484.445313 67.480469 C 467.269531 67.480469 453.929688 72.738281 444.421875 83.238281 C 434.910156 93.742188 430.160156 108.734375 430.160156 128.207031 C 430.160156 137.257813 431.269531 145.539063 433.496094 153.050781 C 435.71875 160.570313 439.089844 166.964844 443.617188 172.257813 C 448.140625 177.550781 453.773438 181.652344 460.523438 184.5625 C 467.269531 187.476563 475.246094 188.933594 484.445313 188.933594 C 501.617188 188.933594 514.925781 183.683594 524.355469 173.179688 C 533.78125 162.679688 538.503906 147.6875 538.503906 128.207031 C 538.503906 119.164063 537.386719 110.882813 535.164063 103.367188 "/>
<path style=" stroke:none;fill-rule:nonzero;fill:rgb(10.205078%,14.892578%,17.259216%);fill-opacity:1;" d="M 582.929688 138.097656 L 582.929688 185.710938 L 553.023438 185.710938 L 553.023438 24.695313 L 582.929688 24.695313 L 582.929688 119.699219 L 616.050781 70.699219 L 648.949219 70.699219 L 609.609375 123.148438 L 653.320313 185.710938 L 619.042969 185.710938 "/>
<path style=" stroke:none;fill-rule:nonzero;fill:rgb(10.205078%,14.892578%,17.259216%);fill-opacity:1;" d="M 723.652344 117.164063 L 681.101563 117.164063 C 681.859375 109.347656 684.105469 103.097656 687.84375 98.421875 C 691.585938 93.742188 697.339844 91.40625 705.125 91.40625 C 711.835938 91.40625 716.753906 93.628906 719.882813 98.074219 C 723.007813 102.523438 724.269531 108.882813 723.652344 117.164063 M 747.578125 91.636719 C 744.972656 85.652344 741.515625 80.902344 737.230469 77.371094 C 732.933594 73.847656 728.019531 71.316406 722.507813 69.78125 C 716.984375 68.25 711.304688 67.484375 705.484375 67.484375 C 688 67.484375 674.429688 72.542969 664.765625 82.664063 C 655.109375 92.785156 650.277344 107.964844 650.277344 128.207031 C 650.277344 147.070313 654.570313 161.910156 663.15625 172.714844 C 671.742188 183.53125 685.316406 188.933594 703.871094 188.933594 C 712.765625 188.933594 721.160156 187.667969 729.0625 185.140625 C 736.957031 182.609375 743.207031 179.503906 747.808594 175.824219 L 737.949219 156.273438 C 735.351563 158.265625 731.566406 160.21875 726.601563 162.136719 C 721.636719 164.058594 716.015625 165.011719 709.753906 165.011719 C 699.667969 165.011719 692.367188 162.566406 687.855469 157.65625 C 683.351563 152.746094 680.867188 145.460938 680.40625 135.800781 L 749.195313 135.800781 C 749.957031 131.816406 750.53125 127.976563 750.910156 124.300781 C 751.296875 120.617188 751.488281 117.164063 751.488281 113.945313 C 751.488281 105.054688 750.183594 97.613281 747.578125 91.636719 "/>
<path style=" stroke:none;fill-rule:nonzero;fill:rgb(10.205078%,14.892578%,17.259216%);fill-opacity:1;" d="M 838.09375 185.714844 L 838.09375 120.386719 C 838.09375 111.035156 836.753906 104.285156 834.070313 100.144531 C 831.390625 96.003906 826.824219 93.933594 820.386719 93.933594 C 814.707031 93.933594 809.914063 95.582031 806.007813 98.882813 C 802.097656 102.179688 799.296875 106.277344 797.613281 111.1875 L 797.613281 185.714844 L 767.707031 185.714844 L 767.707031 70.699219 L 794.835938 70.699219 L 794.851563 85.882813 L 795.773438 85.882813 C 799.296875 80.976563 803.976563 76.679688 809.800781 73 C 815.628906 69.320313 823.144531 67.484375 832.34375 67.484375 C 838.019531 67.484375 843.078125 68.253906 847.527344 69.78125 C 851.972656 71.316406 855.730469 73.847656 858.796875 77.371094 C 861.863281 80.902344 864.164063 85.691406 865.699219 91.75 C 867.230469 97.808594 868 105.285156 868 114.175781 L 868 185.714844 "/>
<path style=" stroke:none;fill-rule:nonzero;fill:rgb(10.205078%,14.892578%,17.259216%);fill-opacity:1;" d="M 413.507813 161.558594 C 411.28125 162.175781 408.636719 162.484375 405.570313 162.484375 C 401.121094 162.484375 398.097656 160.753906 396.484375 157.304688 C 394.875 153.855469 394.070313 148.148438 394.070313 140.171875 L 394.070313 96.003906 L 422.132813 96.003906 L 422.132813 70.699219 L 394.070313 70.699219 L 394.070313 43.796875 L 364.167969 49.082031 L 364.167969 70.699219 L 348.296875 70.699219 L 348.296875 96.003906 L 364.167969 96.003906 L 364.167969 153.96875 C 364.167969 166.390625 366.65625 175.332031 371.644531 180.769531 C 376.625 186.210938 384.410156 188.933594 394.992188 188.933594 C 400.660156 188.933594 406.261719 188.246094 411.78125 186.867188 C 413.597656 186.410156 415.3125 185.914063 416.976563 185.390625 L 416.976563 160.433594 C 415.753906 160.882813 414.597656 161.261719 413.507813 161.558594 "/>
</g>
</svg>
